<?xml version="1.0" standalone="no"?>
<!DOCTYPE svg PUBLIC "-//W3C//DTD SVG 20010904//EN"
 "http://www.w3.org/TR/2001/REC-SVG-20010904/DTD/svg10.dtd">
<svg version="1.0" xmlns="http://www.w3.org/2000/svg"
 width="150.000000pt" height="150.000000pt" viewBox="0 0 150.000000 150.000000"
 preserveAspectRatio="xMidYMid meet">
<metadata>
Created by potrace 1.11, written by Peter Selinger 2001-2013
</metadata>
<g transform="translate(0.000000,150.000000) scale(0.100000,-0.100000)"
fill="#000000" stroke="none">
<path d="M0 750 l0 -750 750 0 750 0 0 750 0 750 -750 0 -750 0 0 -750z m871
492 c158 -55 248 -145 298 -295 24 -72 45 -227 36 -269 -6 -28 -8 -28 -80 -28
l-72 0 -7 40 c-19 122 -94 228 -194 277 -51 24 -68 27 -162 28 -58 0 -123 -3
-145 -7 l-40 -7 -61 107 c-34 59 -61 108 -59 110 8 9 131 46 190 58 90 17 223
11 296 -14z m-119 -263 c155 -33 262 -153 284 -318 6 -50 6 -51 -20 -51 -22 0
-26 -4 -26 -29 0 -16 -7 -48 -15 -71 -20 -57 -20 -59 19 -75 40 -17 55 -35 30
-35 -10 0 -89 25 -175 56 -87 31 -165 54 -173 51 -22 -9 -20 -50 4 -97 l20
-39 -113 -87 -112 -86 -6 93 c-3 52 -9 120 -14 151 l-7 57 61 30 c34 17 61 35
61 39 -1 4 -11 20 -25 36 l-23 29 -52 -33 -51 -33 2 -55 c2 -44 -1 -57 -17
-69 -11 -8 -20 -10 -22 -4 -3 9 51 390 64 449 4 21 6 20 36 -15 18 -21 33 -40
35 -42 1 -2 9 2 18 9 13 11 12 19 -15 68 -16 30 -29 57 -27 58 1 2 25 7 52 12
71 14 145 14 207 1z"/>
</g>
</svg>
